<?xml version="1.0" standalone="no"?>
<!DOCTYPE svg PUBLIC "-//W3C//DTD SVG 20010904//EN"
 "http://www.w3.org/TR/2001/REC-SVG-20010904/DTD/svg10.dtd">
<svg version="1.0" xmlns="http://www.w3.org/2000/svg"
 width="1600.000000pt" height="1600.000000pt" viewBox="0 0 1600.000000 1600.000000"
 preserveAspectRatio="xMidYMid meet">
<metadata>
Created by potrace 1.14, written by Peter Selinger 2001-2017
</metadata>
<g transform="translate(0.000000,1600.000000) scale(0.100000,-0.100000)"
fill="#000000" stroke="none">
<path d="M5726 13082 c-3 -2 -26 -6 -53 -7 -74 -5 -182 -23 -248 -41 -33 -8
-69 -17 -80 -19 -79 -13 -338 -109 -590 -220 -16 -8 -64 -28 -105 -45 -197
-84 -293 -131 -404 -198 -167 -101 -379 -247 -445 -307 -123 -112 -264 -260
-323 -339 -67 -89 -95 -138 -54 -92 54 60 123 132 146 151 20 16 19 13 -5 -17
-17 -20 -67 -83 -113 -140 -45 -56 -99 -122 -118 -146 -20 -23 -53 -77 -74
-119 -21 -42 -44 -79 -50 -83 -6 -4 -13 -16 -14 -26 -2 -14 -10 -18 -29 -16
-29 3 -40 -10 -44 -53 -6 -65 -10 -78 -32 -94 -24 -18 -18 -30 22 -44 22 -8
31 -31 23 -62 -7 -28 -32 -33 -62 -10 -10 8 -30 15 -43 15 -19 0 -21 -3 -12
-14 9 -11 6 -22 -14 -52 -15 -22 -30 -37 -33 -34 -4 3 -6 8 -5 12 2 5 -1 8 -7
8 -5 0 -12 -11 -16 -25 -3 -13 -13 -30 -21 -36 -26 -22 -44 -78 -32 -101 8
-15 5 -26 -15 -52 -14 -19 -23 -36 -20 -39 3 -3 1 -22 -6 -42 -7 -20 -13 -42
-14 -50 -1 -7 -7 -19 -12 -26 -24 -30 -28 -43 -12 -37 16 6 43 -28 29 -36 -5
-3 -11 -20 -15 -38 -3 -17 -14 -40 -22 -50 -21 -22 -7 -43 36 -51 28 -6 29 -7
15 -34 -8 -15 -15 -33 -15 -40 0 -14 -35 -27 -49 -18 -5 3 -12 1 -16 -5 -10
-16 -23 -12 -27 8 -2 9 -4 -8 -4 -39 1 -41 4 -55 13 -52 7 3 16 -2 19 -11 3
-9 10 -13 16 -10 5 3 3 16 -6 30 -21 32 -21 56 2 52 9 -2 18 -9 18 -16 1 -6 2
-16 3 -21 0 -5 16 -31 34 -57 18 -27 32 -56 31 -64 0 -8 -2 -23 -2 -33 -2 -13
-8 -16 -26 -11 -34 8 -49 -2 -36 -26 11 -20 -1 -60 -27 -90 -10 -14 -8 -16 14
-15 20 0 28 -6 34 -27 7 -25 4 -30 -17 -27 -15 2 -21 -26 -24 -99 -6 -140 -4
-231 4 -239 4 -4 16 3 26 17 19 25 19 25 -3 37 -20 10 -20 12 -5 18 10 4 35 1
55 -8 37 -14 50 -41 32 -63 -6 -8 -6 -21 2 -38 11 -24 13 -24 25 -8 12 16 12
15 9 -3 -2 -11 -4 -26 -4 -34 -1 -7 -7 -11 -15 -8 -20 8 -10 -20 17 -50 25
-28 4 -32 -26 -6 -18 17 -19 17 -32 0 -6 -9 -20 -17 -29 -17 -13 0 -15 -4 -7
-19 13 -23 4 -33 -19 -21 -15 8 -17 6 -13 -13 3 -12 10 -28 16 -34 5 -7 7 -19
4 -28 -4 -8 1 -19 10 -23 12 -7 16 -24 14 -71 -1 -35 1 -78 5 -97 5 -28 9 -32
20 -23 22 18 35 -29 18 -62 -25 -50 23 -148 74 -152 20 -1 23 -5 18 -29 -4
-21 2 -34 29 -61 35 -35 44 -57 25 -57 -5 0 -10 3 -10 8 0 4 -7 16 -16 27 -21
28 -35 3 -22 -39 5 -17 11 -42 13 -55 3 -20 32 -50 134 -138 22 -20 27 -21 41
-8 18 16 53 18 84 6 13 -5 16 -10 8 -15 -7 -4 -9 -21 -6 -45 7 -47 -25 -111
-44 -88 -9 10 -8 19 3 34 13 19 11 33 -6 33 -6 0 -11 -12 -24 -62 -2 -5 -3
-19 -4 -33 -1 -23 -3 -24 -22 -15 -17 9 -18 14 -8 26 10 13 10 17 -2 25 -22
13 -27 11 -42 -18 -7 -16 -19 -27 -26 -25 -7 1 -3 -11 10 -30 13 -18 25 -41
26 -52 2 -11 19 -40 38 -64 18 -24 31 -50 29 -57 -4 -10 1 -12 15 -8 26 7 38
-19 23 -51 -8 -18 -6 -25 9 -35 11 -6 18 -15 15 -20 -6 -8 29 -41 44 -41 6 0
10 -4 10 -9 0 -5 21 -18 48 -29 30 -14 55 -34 69 -56 27 -42 14 -58 -16 -20
-24 31 -28 16 -6 -25 8 -16 30 -36 49 -45 37 -17 61 -49 51 -66 -5 -8 -30 -8
-92 -1 -7 0 -13 10 -13 22 0 12 4 18 11 13 13 -7 31 15 22 29 -2 4 -11 3 -18
-3 -11 -9 -17 -5 -30 19 -8 17 -20 31 -25 31 -6 0 -10 5 -10 11 0 5 5 7 11 4
16 -11 -32 78 -50 92 -41 32 -37 4 14 -97 18 -36 35 -74 36 -85 2 -11 24 -36
49 -55 25 -19 51 -40 59 -48 12 -12 16 -10 28 12 8 14 18 26 24 26 6 0 7 -4 4
-10 -11 -18 -14 -70 -4 -70 6 0 7 -4 4 -10 -9 -15 14 -50 29 -44 8 3 26 -2 41
-12 20 -13 29 -14 38 -5 7 7 7 11 1 11 -6 0 -11 7 -11 15 0 10 6 14 15 10 8
-3 21 0 28 6 11 9 16 6 23 -12 5 -13 6 -28 3 -34 -4 -5 -5 -18 -4 -27 4 -25
-20 -23 -78 7 -27 14 -52 25 -54 25 -3 0 3 -14 12 -30 13 -24 22 -30 40 -27
16 3 50 -14 111 -54 130 -86 152 -120 45 -71 -61 29 -88 31 -97 8 -4 -9 9 -18
33 -26 29 -9 39 -19 43 -40 3 -14 25 -45 49 -68 44 -43 58 -50 58 -30 0 16 32
-21 47 -54 7 -16 17 -28 23 -28 6 0 35 -25 64 -56 30 -32 56 -52 60 -46 3 6
-7 20 -23 31 -31 23 -47 54 -36 72 5 7 12 6 23 -4 26 -23 153 -106 146 -96
-12 20 14 7 39 -19 33 -34 35 -54 5 -51 -13 2 -28 0 -35 -4 -6 -4 -18 -1 -25
7 -8 7 -23 16 -34 20 -16 5 -20 1 -22 -24 -1 -19 5 -39 18 -52 21 -23 26 -44
12 -50 -5 -1 -22 -23 -39 -48 -17 -25 -41 -55 -52 -67 -12 -13 -20 -23 -17
-23 3 0 -2 -19 -10 -42 -9 -24 -17 -50 -18 -58 -2 -8 64 -98 147 -200 82 -102
163 -203 181 -225 17 -21 42 -52 56 -67 l25 -29 70 66 c61 57 68 66 53 75 -21
13 -25 62 -5 54 7 -2 19 6 26 18 17 33 125 67 166 54 40 -13 40 -13 26 -30 -9
-11 -19 -12 -36 -6 -16 6 -29 4 -41 -5 -15 -12 -16 -15 -4 -16 33 -2 77 1 118
9 49 11 52 5 15 -29 -14 -13 -23 -18 -19 -11 13 22 -22 13 -38 -10 -19 -26
-15 -32 27 -34 47 -3 47 -3 41 -18 -3 -8 14 3 37 25 47 43 63 47 91 22 10 -9
18 -11 18 -6 0 6 -7 14 -16 17 -18 7 -11 21 16 36 16 8 24 6 42 -12 l22 -22
-24 -6 c-38 -9 -34 -26 9 -44 30 -12 42 -23 46 -43 13 -59 31 -98 48 -101 13
-3 17 3 17 24 l0 28 22 -24 c20 -21 23 -22 26 -7 4 21 22 23 22 2 0 -8 0 -17
0 -20 0 -3 9 -14 19 -24 12 -12 17 -28 14 -39 -3 -14 2 -21 18 -25 27 -7 39 0
20 12 -21 13 -3 31 27 28 26 -2 69 -34 59 -44 -3 -2 -17 3 -31 12 -28 19 -35
12 -12 -11 8 -8 24 -14 35 -14 26 0 27 -10 3 -36 -9 -10 -40 -48 -67 -84 -28
-36 -56 -71 -63 -79 -7 -7 -11 -20 -8 -27 3 -7 0 -16 -6 -20 -7 -5 -8 -2 -3 6
5 8 4 11 -3 6 -6 -4 -9 -13 -6 -21 4 -8 -4 -31 -15 -51 -12 -20 -33 -64 -47
-98 -14 -33 -32 -76 -40 -94 -15 -31 -23 -61 -29 -107 -2 -11 -4 -20 -5 -20
-2 0 -10 -34 -15 -67 -4 -30 5 -39 185 -174 58 -43 114 -87 125 -96 10 -10 41
-33 67 -51 26 -17 48 -36 48 -40 0 -5 -8 -2 -18 5 -47 35 -228 172 -232 177
-3 3 -48 39 -101 79 -105 79 -103 75 -81 169 5 24 6 41 2 38 -9 -5 -19 -43
-26 -100 -5 -39 -4 -41 56 -85 34 -24 70 -51 80 -60 10 -8 51 -40 91 -70 39
-30 113 -87 164 -126 l92 -71 49 19 c27 10 65 26 84 34 50 22 142 65 162 75
10 5 58 29 108 55 50 25 128 67 173 92 45 26 94 53 109 61 16 8 26 16 23 19
-2 3 -11 -1 -20 -8 -10 -8 -15 -9 -15 -1 0 6 3 11 8 11 4 0 27 18 51 40 25 22
48 40 53 40 5 0 7 4 3 9 -10 17 17 24 32 8 18 -18 26 -64 12 -73 -11 -6 -2
-24 12 -24 5 0 9 10 9 21 0 18 2 19 15 9 8 -7 15 -20 15 -30 0 -9 21 -39 46
-66 36 -38 47 -57 49 -85 1 -20 5 -41 8 -46 10 -16 -36 -121 -55 -126 -12 -4
-20 4 -28 29 -7 19 -17 34 -24 34 -21 0 -46 -110 -32 -140 3 -9 -2 -33 -13
-55 -11 -22 -20 -35 -21 -30 0 6 -4 3 -10 -5 -6 -9 -5 -20 3 -29 10 -12 9 -13
-1 -7 -21 13 -13 -83 10 -113 10 -13 18 -28 18 -34 0 -15 51 -79 57 -73 3 3 1
11 -5 18 -5 7 -12 38 -14 70 -3 55 6 66 21 25 7 -18 11 -13 25 33 21 73 33 91
32 48 -2 -61 19 -40 34 36 8 41 22 82 31 93 9 10 27 38 39 63 12 25 29 49 36
53 8 4 14 15 14 22 0 17 9 19 29 6 9 -6 11 -16 7 -27 -5 -11 -10 -37 -13 -58
-5 -47 -20 -79 -34 -71 -5 4 -9 17 -9 31 0 13 -5 24 -11 24 -9 0 -39 -59 -43
-85 -1 -5 -4 -14 -8 -20 -3 -5 -8 -26 -12 -45 -4 -26 -3 -30 3 -15 6 12 10 14
10 6 1 -11 5 -11 19 2 13 12 19 13 20 5 1 -7 3 -26 5 -43 2 -16 0 -35 -5 -42
-5 -7 -5 -14 2 -18 5 -3 10 -2 10 3 0 5 11 7 25 4 14 -2 25 -7 25 -11 -1 -15
-18 -31 -31 -28 -8 2 -11 2 -6 0 4 -3 7 -10 7 -16 0 -7 20 -34 45 -62 25 -27
45 -54 45 -60 0 -6 -10 -21 -23 -35 -53 -58 -149 -191 -190 -264 -28 -48 -63
-93 -91 -116 -45 -38 -46 -39 -26 -53 l21 -15 -34 -85 -35 -86 22 -15 c69 -51
206 -152 309 -228 65 -48 115 -83 112 -78 -7 11 136 124 144 113 11 -15 45
-38 38 -26 -10 16 18 84 42 103 10 8 79 62 152 120 74 58 143 113 153 122 11
10 37 30 58 44 37 26 39 27 53 8 15 -20 11 -74 -7 -85 -5 -3 -2 -12 7 -19 8
-7 15 -23 15 -35 0 -12 7 -28 15 -35 14 -11 14 -10 6 13 -13 33 -1 41 51 38
22 -1 38 3 38 9 0 6 -8 10 -17 9 -32 -3 -43 1 -43 15 0 8 7 16 15 20 30 11 62
-16 93 -79 27 -54 29 -64 15 -69 -14 -6 -14 -9 2 -26 10 -11 26 -20 37 -20 12
0 18 -7 18 -21 0 -13 -4 -18 -12 -13 -8 5 -7 0 2 -12 21 -27 33 -34 47 -29 6
2 17 -3 24 -11 7 -8 21 -20 31 -25 17 -9 18 -8 9 9 -6 11 -8 22 -4 25 3 4 0
13 -7 22 -15 18 1 20 18 3 9 -9 12 -2 12 32 0 42 0 43 20 25 21 -19 24 -16 20
25 -1 14 1 22 5 18 4 -3 22 0 40 8 32 13 35 12 49 -8 9 -12 16 -28 16 -35 0
-7 4 -13 10 -13 5 0 7 7 3 16 -5 13 -2 15 18 9 26 -9 48 -32 49 -52 0 -29 22
-9 62 60 23 39 46 74 50 75 5 2 8 8 8 13 0 30 73 118 126 154 32 22 62 44 65
48 3 5 8 8 10 6 2 -1 22 9 44 23 56 34 79 42 72 24 -10 -25 18 -8 35 22 9 15
25 37 35 48 10 12 32 39 48 60 17 21 41 49 53 63 13 15 31 36 40 48 12 15 97
55 257 119 132 53 245 98 251 101 7 2 12 14 12 26 0 12 1 76 2 142 l2 120 115
90 c64 50 127 100 142 113 17 15 34 21 49 17 12 -3 22 -1 22 5 0 5 -6 10 -12
10 -7 1 0 11 16 24 27 23 31 23 69 10 22 -8 53 -14 70 -14 24 0 28 -3 19 -12
-24 -24 -11 -29 21 -7 17 12 30 20 27 16 -47 -56 -165 -183 -339 -363 -111
-115 -173 -182 -234 -256 -102 -120 -243 -363 -232 -398 3 -10 1 -21 -4 -25
-7 -4 -8 1 -4 11 4 12 3 15 -6 10 -6 -4 -9 -16 -6 -25 5 -18 -31 -104 -73
-171 -12 -19 -24 -46 -27 -60 -7 -31 -94 -83 -136 -82 -20 0 -26 -3 -22 -14 3
-8 9 -14 15 -14 5 0 -2 -11 -16 -24 -15 -13 -26 -27 -26 -32 0 -5 -11 -31 -25
-57 -17 -35 -20 -47 -10 -43 8 3 15 1 15 -4 0 -6 -5 -10 -10 -10 -6 0 -8 -10
-5 -23 4 -15 1 -28 -9 -36 -13 -11 -16 -9 -22 13 -4 16 -13 26 -24 26 -11 0
-21 4 -24 9 -7 10 -92 -67 -88 -80 1 -6 -2 -18 -8 -29 -7 -13 -6 -20 3 -24 7
-3 -10 -25 -45 -58 -52 -49 -57 -57 -63 -109 -6 -52 -10 -58 -45 -78 -65 -36
-103 -20 -53 23 15 13 25 27 21 31 -3 4 -28 -15 -55 -42 -62 -62 -96 -83 -136
-86 -19 -1 -39 -11 -50 -25 -10 -12 -39 -36 -63 -53 -25 -17 -43 -33 -40 -36
3 -3 11 -1 19 5 7 6 25 15 39 21 l26 10 -2 -50 c-3 -36 0 -49 10 -49 9 0 14
12 14 34 0 42 25 72 46 56 11 -10 10 -20 -8 -63 -29 -73 -31 -84 -19 -91 16
-11 63 41 57 62 -3 10 -2 32 3 49 11 38 61 104 73 96 5 -2 4 -11 -3 -19 -19
-23 3 -16 30 10 15 13 51 40 81 60 30 19 79 53 108 73 52 36 53 38 33 52 -31
20 -26 55 11 85 18 13 36 22 40 20 14 -9 8 -42 -9 -48 -15 -6 -14 -8 2 -20 13
-9 16 -19 10 -32 -4 -10 -11 -39 -16 -64 -12 -70 -13 -75 -34 -106 -11 -16
-31 -50 -45 -76 -14 -26 -46 -70 -72 -97 -52 -53 -60 -68 -27 -51 18 10 20 9
17 -7 -2 -11 -14 -19 -31 -21 -16 -2 -36 -15 -48 -31 -18 -24 -27 -28 -57 -24
-119 14 -128 18 -123 63 2 16 -68 -53 -108 -108 -31 -41 -47 -41 -58 4 -4 19
-12 36 -18 37 -14 3 -56 -64 -51 -82 3 -9 -5 -24 -19 -34 -14 -10 -25 -13 -25
-7 0 6 -5 8 -10 5 -6 -4 -8 -11 -5 -16 4 -5 0 -9 -7 -9 -14 0 -33 -26 -48 -66
-8 -19 -7 -23 2 -18 6 4 2 -8 -10 -28 -12 -19 -22 -44 -21 -54 0 -17 2 -16 11
3 6 13 17 23 23 23 7 0 24 12 39 26 17 18 26 22 26 12 0 -8 -5 -19 -12 -26
-22 -22 7 -12 55 18 l47 30 -15 -30 c-8 -16 -15 -35 -15 -41 0 -16 66 47 88
84 9 15 24 27 32 27 9 0 29 14 45 30 16 17 33 30 38 30 5 0 22 14 39 30 17 17
33 29 36 26 6 -7 -46 -126 -66 -148 -23 -27 -32 -22 -25 12 8 43 -10 38 -63
-16 -35 -37 -42 -50 -33 -60 9 -11 15 -12 26 -2 12 10 12 5 -2 -27 -18 -45
-62 -95 -82 -95 -7 0 -13 -4 -13 -10 0 -15 11 -12 33 7 11 10 17 12 13 5 -13
-22 2 -62 22 -59 37 6 48 24 29 53 -10 17 67 66 81 52 8 -8 19 2 39 35 15 26
33 47 39 47 6 0 18 8 25 18 13 15 12 16 -4 3 -15 -12 -17 -12 -11 3 3 9 11 16
16 16 9 0 78 66 78 75 0 2 -8 2 -17 -2 -14 -5 -13 0 5 20 13 14 44 63 68 109
24 45 44 74 44 64 0 -10 -14 -41 -31 -68 -16 -28 -28 -52 -26 -54 11 -11 37
10 37 30 1 30 25 59 52 61 16 1 24 11 30 34 5 17 13 29 18 26 11 -7 25 41 21
68 -1 10 9 37 24 59 l27 40 -25 -18 c-14 -11 -33 -36 -43 -56 -9 -21 -25 -45
-35 -54 -18 -16 -19 -16 -19 5 0 12 11 39 25 61 14 22 25 44 25 49 0 6 23 17
52 26 28 8 62 22 75 30 29 20 30 3 1 -35 -21 -30 -18 -54 4 -32 7 7 20 12 30
12 14 0 17 5 12 24 -4 16 -1 27 9 33 8 4 26 31 41 58 47 85 92 120 186 144 45
11 107 32 137 46 48 21 54 22 49 7 -3 -9 3 -5 15 10 11 16 25 28 29 28 13 0
164 92 168 102 2 4 9 8 15 8 7 0 23 9 37 20 14 11 72 56 130 100 58 44 112 86
120 93 8 6 47 37 85 67 39 30 75 60 80 66 20 23 152 132 230 189 44 32 119 95
166 139 109 104 168 154 309 266 63 50 124 99 135 108 11 10 73 60 138 112 64
51 117 98 117 102 0 4 4 8 10 8 32 0 250 245 250 281 0 4 -16 5 -35 2 -19 -3
-35 -3 -35 0 0 3 24 17 52 32 41 22 49 24 38 9 -14 -17 -13 -17 16 1 81 52 98
74 84 109 -8 21 -6 30 10 46 31 31 53 26 45 -9 -4 -20 -2 -30 9 -34 11 -4 29
11 58 48 27 35 50 55 63 55 30 0 120 84 190 176 101 133 172 211 182 200 10
-10 -24 -69 -68 -118 -74 -83 -14 -53 70 35 28 29 61 59 74 66 33 17 67 73 67
108 0 35 22 58 49 50 14 -3 21 2 26 21 8 31 123 152 138 146 7 -2 24 16 40 40
22 35 26 49 18 68 -8 22 -2 31 51 84 36 35 55 49 48 34 -8 -14 -12 -25 -11
-25 1 0 -2 -13 -8 -28 -18 -46 -13 -47 28 -6 22 21 54 45 70 54 17 8 31 22 31
30 0 8 32 45 70 84 39 38 77 86 85 105 9 20 18 36 21 36 3 0 3 -4 -1 -9 -3 -5
-1 -12 4 -15 12 -8 101 92 161 182 62 91 73 102 97 96 21 -6 50 22 122 118 31
42 83 87 190 163 80 58 158 115 173 127 14 13 45 38 67 56 23 19 41 37 41 42
0 4 38 47 85 96 47 49 91 96 98 104 78 92 107 129 107 139 0 6 4 11 8 11 11 0
68 108 60 115 -3 3 -22 -23 -43 -57 -103 -169 -190 -257 -384 -391 -64 -44
-147 -105 -186 -135 -38 -31 -59 -43 -45 -28 20 22 97 87 165 138 46 36 58 47
48 48 -7 0 -13 -4 -13 -9 0 -5 -9 -13 -20 -16 -11 -3 -26 -12 -32 -18 -17 -16
-126 -87 -133 -87 -7 0 51 85 73 108 10 11 12 11 12 -3 0 -9 4 -14 9 -11 17
11 71 99 65 107 -3 5 3 12 13 16 30 11 52 40 99 131 29 56 63 103 94 132 56
52 76 88 84 150 3 25 7 54 10 65 2 11 5 24 5 29 1 5 8 3 16 -4 8 -7 21 -10 29
-7 13 5 86 147 86 168 0 5 5 9 12 9 6 0 9 3 6 6 -3 3 15 51 41 107 26 56 58
129 71 162 13 33 27 64 32 70 4 5 8 15 8 23 0 8 6 28 14 45 14 32 50 127 52
137 3 24 69 216 74 220 8 5 30 75 37 115 2 11 8 45 14 75 13 60 15 78 23 190
3 41 8 91 11 110 28 199 25 330 -8 330 -7 0 -17 -10 -22 -22 -6 -13 -20 -24
-32 -26 -21 -3 -23 1 -23 41 0 34 7 53 30 82 17 21 30 48 30 61 0 36 27 29 40
-10 6 -19 18 -40 26 -47 14 -11 15 -8 10 27 -7 41 -12 68 -22 107 -3 12 -7 69
-9 127 -2 58 -4 110 -5 115 -1 6 -2 26 -1 45 1 32 2 33 17 18 11 -11 14 -23 9
-35 -13 -30 -5 -95 16 -133 20 -35 20 -35 14 -5 -4 17 -9 57 -11 90 -3 33 -7
78 -9 100 -3 22 -6 54 -8 71 -1 17 -10 38 -19 48 -10 10 -18 23 -18 31 0 7
-16 44 -36 80 l-35 67 21 23 c22 23 22 23 2 34 -11 6 -22 21 -25 33 -3 13 -17
66 -32 118 -17 63 -24 109 -21 136 5 41 3 46 -49 138 -20 37 -23 47 -11 43 21
-8 20 1 -4 65 -23 60 -23 60 -81 183 -23 50 -56 129 -74 177 -30 80 -65 138
-127 215 -40 48 -110 114 -117 108 -3 -3 -1 -9 4 -13 9 -6 35 -56 35 -67 0
-16 -26 2 -70 47 -30 31 -50 60 -50 74 0 13 -4 26 -10 29 -5 3 -10 11 -10 17
0 7 5 6 14 -1 24 -20 26 4 3 41 -12 20 -39 55 -61 78 -21 23 -39 52 -40 66 0
13 -5 24 -9 24 -13 0 -103 92 -110 113 -4 9 -11 17 -17 17 -6 0 -8 -6 -4 -12
4 -8 3 -10 -2 -5 -9 9 -10 13 -13 41 -2 30 -66 76 -131 96 -36 11 -76 29 -89
40 l-23 20 33 -6 34 -5 -23 17 c-13 10 -58 32 -100 50 -42 19 -80 40 -84 49
-8 14 -46 33 -125 65 -18 7 -30 16 -27 21 3 5 2 8 -3 7 -4 -2 -34 6 -65 16
-37 13 -60 27 -67 42 -5 13 -22 30 -36 40 -20 13 -23 20 -14 30 15 18 59 -4
83 -40 16 -25 74 -62 82 -53 11 11 -104 120 -174 165 -127 81 -242 134 -397
182 -38 12 -106 33 -150 47 -44 13 -107 27 -140 29 -33 3 -85 14 -115 24 -126
42 -215 53 -390 47 -91 -4 -178 -9 -195 -12 -98 -18 -182 -39 -218 -55 -28
-13 -46 -16 -58 -9 -13 6 -34 0 -81 -25 -52 -27 -160 -70 -203 -81 -5 -1 -17
-5 -25 -8 -8 -3 -42 -15 -75 -26 -117 -41 -188 -78 -222 -113 -15 -16 -36 -28
-47 -28 -18 1 -16 5 14 30 37 33 23 39 -26 12 -17 -9 -49 -27 -70 -38 -22 -12
-55 -25 -74 -28 l-35 -7 30 26 c26 22 27 25 10 25 -11 0 -33 -9 -50 -20 -16
-11 -38 -20 -47 -20 -10 0 -18 -6 -18 -13 0 -17 -44 -63 -92 -94 -23 -16 -35
-29 -28 -31 7 -3 -25 -23 -71 -46 -71 -35 -250 -144 -299 -183 -8 -6 -62 -48
-120 -94 -118 -92 -351 -323 -420 -414 -25 -33 -50 -65 -56 -72 -6 -6 -25 -34
-43 -62 -36 -56 -46 -63 -36 -28 3 12 -10 -9 -30 -48 -20 -38 -48 -86 -64
-105 -40 -51 -51 -75 -53 -117 -1 -40 -12 -68 -35 -93 -8 -8 -22 -31 -31 -50
-10 -21 -25 -36 -37 -36 -11 -1 -22 -3 -25 -4 -3 -1 -13 -3 -23 -5 -15 -3 -16
-1 -6 11 14 17 5 18 -22 3 -11 -5 -17 -13 -15 -18 4 -7 -72 -31 -99 -32 -5 0
-20 -7 -32 -15 -15 -9 -23 -11 -23 -3 0 7 -7 8 -17 4 -10 -4 -26 -8 -35 -10
-28 -6 -66 -35 -71 -55 -3 -11 -18 -25 -34 -32 -15 -7 -31 -17 -34 -22 -4 -5
-11 -6 -17 -2 -5 3 -17 -6 -27 -20 -13 -20 -23 -25 -42 -21 -20 4 -27 -1 -34
-22 -6 -14 -22 -35 -37 -45 -15 -11 -21 -13 -14 -6 28 32 9 36 -24 6 -26 -24
-44 -33 -65 -31 -23 2 -30 -3 -38 -27 -6 -16 -6 -26 -1 -23 5 3 11 1 15 -5 4
-6 -6 -9 -27 -8 -30 3 -33 0 -39 -32 -5 -34 -8 -32 -23 13 -7 23 -23 22 -31
-3 -5 -15 -12 -19 -25 -15 -28 9 -51 -7 -95 -69 -22 -31 -43 -56 -47 -56 -14
0 -9 35 8 58 22 32 11 38 -24 13 -17 -12 -35 -21 -41 -21 -15 0 -33 -37 -21
-45 5 -3 6 -13 3 -22 -6 -14 -8 -14 -20 3 -11 15 -13 15 -13 2 0 -24 -51 -62
-61 -46 -11 18 -28 -32 -22 -65 4 -19 11 -27 27 -27 16 0 12 -5 -19 -24 -36
-22 -41 -23 -46 -8 -3 9 -3 28 1 42 10 35 2 54 -16 39 -7 -6 -20 -9 -28 -6 -9
4 -17 -1 -21 -13 -3 -10 -16 -20 -28 -22 -12 -2 -27 -14 -34 -28 -10 -19 -13
-21 -13 -7 0 16 -2 16 -29 3 -16 -9 -38 -28 -49 -43 -17 -23 -24 -26 -39 -17
-28 17 -58 0 -102 -60 -43 -58 -84 -93 -89 -76 -6 16 -42 12 -42 -5 0 -8 -6
-12 -14 -9 -8 3 -26 -8 -42 -26 -23 -25 -33 -30 -55 -25 -30 7 -49 -14 -49
-54 0 -12 -4 -21 -10 -21 -5 0 -10 7 -10 15 0 8 -9 15 -20 15 -11 0 -20 -3
-20 -8 0 -7 -41 -39 -191 -151 -31 -23 -67 -44 -80 -46 -13 -3 -49 -31 -79
-63 -30 -33 -67 -66 -82 -75 -42 -26 -44 -52 -6 -86 40 -36 30 -59 -16 -36
-15 8 -32 13 -36 10 -11 -7 -21 22 -14 39 3 8 1 23 -5 33 -8 14 -11 15 -11 3
-1 -18 -34 -60 -48 -60 -5 0 -15 -7 -22 -15 -16 -19 -40 -19 -40 0 0 9 6 12
15 9 8 -4 15 -2 15 4 0 6 3 18 7 28 4 12 -8 6 -40 -17 -25 -19 -44 -39 -42
-46 2 -6 -1 -13 -7 -15 -6 -2 -12 -15 -14 -29 -1 -13 -3 -26 -3 -28 -1 -2 -11
4 -23 15 -17 15 -20 16 -16 3 12 -31 -38 -64 -82 -54 -23 5 -28 2 -33 -16 -5
-17 -9 -20 -19 -11 -10 8 -20 7 -38 -3 -14 -8 -57 -30 -97 -50 -66 -32 -100
-64 -116 -107 -5 -13 -1 -18 13 -18 24 0 27 -32 6 -49 -12 -10 -19 -8 -36 9
-19 19 -22 19 -43 5 -12 -8 -29 -15 -38 -15 -9 0 -22 -6 -28 -14 -6 -7 -25
-16 -41 -20 -27 -5 -30 -9 -30 -46 0 -40 -15 -55 -23 -22 -5 20 -11 8 -22 -42
-3 -15 -9 -26 -12 -22 -4 3 -19 -16 -35 -44 -22 -39 -33 -49 -51 -47 -21 2
-37 14 -37 30 0 4 11 5 25 3 32 -6 42 10 15 24 -24 13 -61 5 -120 -27 -25 -13
-34 -16 -20 -6 13 10 52 41 85 68 33 28 139 114 235 190 96 77 180 144 186
150 7 5 22 19 35 29 13 11 69 61 124 111 55 50 155 128 223 174 67 46 144 104
171 130 49 46 177 164 237 218 70 63 209 189 226 206 10 9 20 17 22 17 3 0 17
12 33 28 39 38 99 90 272 236 25 21 57 48 71 60 27 23 247 203 268 219 10 8
16 7 22 -3 7 -11 11 -10 25 3 9 9 28 20 43 23 42 10 52 22 42 49 -9 25 1 36
113 119 38 27 39 28 60 9 l21 -18 -18 29 -18 29 27 -7 c16 -4 41 -2 57 5 25
10 32 9 52 -10 l24 -23 12 36 c6 20 16 36 21 36 17 0 32 53 19 73 -19 31 -14
33 108 51 17 2 27 -3 34 -20 6 -13 15 -24 20 -24 5 0 6 5 2 11 -7 12 23 9 59
-6 26 -11 22 22 -5 36 -14 8 -18 14 -10 17 19 6 14 20 -10 24 -14 2 -24 13
-29 31 -4 16 -3 25 2 21 5 -3 9 -12 9 -20 0 -11 4 -12 19 -4 35 18 61 13 61
-14 0 -14 5 -28 12 -32 7 -4 8 -3 4 4 -4 7 -3 12 3 12 5 0 13 -5 16 -10 5 -8
11 -8 20 0 8 7 15 7 19 1 3 -5 0 -12 -6 -14 -9 -4 -7 -6 3 -6 10 -1 19 10 22
28 5 22 16 33 52 47 25 11 48 27 51 36 3 10 17 21 31 24 22 6 24 9 12 18 -8 6
-15 22 -16 35 -1 13 -9 31 -17 40 -9 10 -13 21 -9 25 4 4 0 4 -10 0 -9 -3 -17
-1 -17 4 0 6 -8 13 -17 16 -10 3 1 3 25 1 24 -3 47 -7 53 -10 5 -3 6 0 3 8 -3
8 0 18 6 22 7 4 -2 14 -22 25 -24 13 -32 24 -31 40 2 16 -5 24 -27 32 -26 9
-43 37 -22 39 4 0 15 2 25 4 9 2 17 -3 17 -11 0 -8 5 -14 10 -14 6 0 10 11 10
24 0 28 24 51 41 40 9 -5 10 -2 6 9 -3 9 -2 19 3 22 5 3 6 13 3 21 -5 15 -7
15 -15 0 -11 -20 -25 -20 -62 -1 -33 17 -36 18 -36 7 0 -5 10 -13 22 -19 12
-5 17 -12 12 -16 -6 -3 -27 5 -47 18 -20 14 -40 25 -45 25 -5 0 -12 8 -16 18
-3 9 -9 23 -12 31 -5 11 2 12 40 7 49 -8 65 8 24 23 -14 5 -17 10 -10 15 17
11 15 36 -4 36 -8 0 -23 7 -31 16 -15 15 -17 14 -28 -6 -9 -16 -14 -19 -20
-11 -5 9 -14 6 -31 -10 -13 -12 -24 -17 -24 -11 0 7 -7 12 -16 12 -11 0 -13
-6 -9 -19 3 -11 1 -22 -5 -26 -6 -3 -8 -10 -5 -14 2 -5 -1 -15 -8 -24 -11 -14
-15 -13 -42 9 l-30 26 33 -7 c29 -6 32 -4 32 18 0 24 -12 29 -36 14 -12 -7
-48 26 -39 35 3 2 -15 6 -41 6 -28 2 -43 -2 -39 -8 3 -5 13 -10 21 -10 8 0 12
-5 9 -11 -4 -6 -14 -8 -22 -5 -12 5 -13 2 -8 -11 5 -10 10 -32 13 -50 4 -28 1
-32 -19 -30 -27 1 -39 13 -39 42 -1 50 -14 48 -128 -25 -62 -39 -150 -92 -196
-118 -46 -26 -137 -79 -203 -118 -109 -66 -191 -108 -203 -103 -3 1 -9 -7 -14
-18 -14 -29 -140 -95 -154 -81 -8 8 -13 7 -18 -5 -3 -9 -15 -17 -25 -17 -11 0
-22 -7 -26 -16 -4 -11 -8 -12 -13 -4 -10 16 -45 4 -71 -23 -20 -21 -21 -21
-34 -4 -17 24 -41 12 -99 -49 -24 -24 -48 -44 -55 -44 -7 0 -10 4 -7 9 3 5 -1
11 -9 15 -8 3 -17 1 -20 -4 -4 -6 -14 -10 -24 -10 -10 0 -24 -7 -31 -15 -14
-17 -50 -20 -50 -5 0 22 -29 -4 -36 -33 -6 -27 -8 -29 -19 -14 -13 18 -41 23
-47 9 -4 -12 -215 -121 -221 -115 -8 8 -42 -14 -88 -57 -24 -22 -50 -40 -59
-40 -18 0 -44 -45 -35 -60 6 -10 -23 -22 -36 -15 -4 3 -4 16 1 30 6 16 6 25
-1 25 -5 0 -12 -7 -15 -15 -6 -14 -68 -55 -85 -55 -5 0 -8 5 -7 12 2 7 -7 13
-20 14 -12 1 -22 -4 -21 -10 1 -6 -4 -26 -11 -44 -11 -30 -13 -31 -26 -15 -13
17 -13 17 -14 -4 0 -26 -28 -37 -70 -28 -23 5 -30 3 -30 -9 0 -9 -4 -16 -10
-16 -5 0 -10 5 -10 11 0 5 -6 7 -12 4 -16 -8 19 22 62 55 35 26 131 108 140
120 18 23 362 280 376 280 3 0 10 5 17 10 7 6 136 92 287 192 151 100 277 184
280 188 3 3 58 40 123 81 64 41 128 81 141 89 13 8 47 29 75 45 28 17 51 33
51 38 0 4 4 7 9 7 18 0 259 172 329 235 19 17 38 30 43 30 5 0 9 2 9 5 0 3 36
43 80 90 43 46 81 94 85 107 6 26 -24 95 -60 136 -19 21 -36 29 -67 31 -45 3
-154 -16 -213 -38 -109 -41 -221 -94 -368 -173 -67 -36 -140 -75 -162 -86 -22
-11 -51 -28 -65 -38 -14 -9 -27 -17 -30 -17 -13 1 -198 -96 -275 -143 -16 -11
-37 -22 -45 -26 -17 -8 -241 -147 -365 -227 -84 -54 -117 -76 -615 -411 -284
-191 -628 -411 -720 -461 -19 -10 -42 -24 -50 -30 -8 -6 -51 -30 -95 -54 -84
-44 -238 -143 -340 -218 -125 -92 -387 -233 -403 -218 -3 4 10 23 29 43 210
227 338 358 344 351 3 -3 -9 -21 -27 -40 -18 -19 -42 -45 -53 -59 l-20 -24 29
25 c33 29 119 131 93 111 -9 -7 -17 -10 -17 -5 0 5 30 38 68 74 37 36 54 51
39 34 -15 -16 -27 -33 -27 -38 0 -4 15 10 34 30 19 21 32 42 30 46 -3 5 0 7 8
6 7 -2 12 3 10 10 -1 8 2 11 7 8 5 -4 42 24 82 61 112 105 135 126 160 148 13
11 71 61 129 111 110 94 253 211 310 254 18 14 38 30 45 36 9 10 353 187 773
398 192 97 545 245 591 249 12 1 21 4 21 7 0 3 8 6 18 7 9 1 35 10 57 19 22
10 43 17 48 16 4 -1 7 3 7 8 0 5 3 9 8 8 6 -2 93 31 212 82 25 11 122 49 215
86 94 37 173 71 176 76 3 5 6 34 5 64 -1 30 1 54 4 54 3 0 6 33 7 73 l2 72
-62 28 c-34 16 -69 32 -77 37 -122 73 -327 132 -576 166 -50 7 -362 12 -368 6z
m324 -246 c72 -8 125 -15 180 -27 25 -5 59 -12 75 -15 47 -9 128 -33 145 -44
13 -8 12 -10 -3 -10 -11 0 -33 -7 -50 -15 -18 -8 -66 -27 -107 -43 -41 -17
-100 -41 -130 -55 -30 -13 -89 -39 -130 -57 -94 -41 -164 -73 -258 -116 -41
-19 -75 -34 -77 -34 -1 0 -49 -22 -106 -49 -57 -26 -126 -59 -154 -71 -27 -12
-77 -35 -110 -50 -33 -15 -82 -37 -110 -50 -27 -12 -92 -42 -143 -66 -51 -24
-94 -44 -97 -44 -2 0 -39 -16 -82 -36 -43 -20 -100 -45 -128 -56 -38 -15 -382
-226 -440 -270 -46 -35 -264 -210 -280 -225 -11 -10 -33 -28 -48 -40 -28 -21
-28 -22 -7 -33 20 -11 19 -13 -27 -56 -26 -25 -66 -59 -87 -77 -102 -83 -180
-153 -184 -166 -2 -7 13 4 35 26 43 43 202 167 208 161 2 -1 -47 -55 -108
-119 -62 -64 -137 -145 -168 -180 -31 -35 -72 -80 -90 -100 -19 -19 -58 -62
-87 -93 -87 -97 -68 -57 23 47 47 53 85 99 85 102 0 3 -39 -35 -87 -85 -57
-59 -89 -86 -94 -78 -9 14 0 32 36 73 15 17 36 41 48 55 81 93 80 105 -2 23
-82 -81 -95 -90 -108 -77 -9 9 -12 21 -7 32 9 21 8 18 17 67 27 139 105 334
183 450 45 69 116 147 108 120 -3 -12 3 -7 16 12 11 17 36 40 54 51 22 13 35
30 39 51 4 18 13 31 22 31 20 0 112 66 150 108 24 26 39 33 74 36 24 2 47 10
52 17 14 22 10 49 -6 49 -19 0 -19 5 0 34 15 23 15 25 -16 47 -55 39 -99 49
-139 33 -40 -16 -46 -23 56 61 27 22 51 43 54 46 5 6 203 146 235 166 23 15
301 153 308 153 2 0 31 12 63 27 33 15 61 27 64 28 15 5 225 103 370 173 119
57 243 102 320 116 19 4 40 8 45 10 12 3 69 14 107 20 15 3 62 8 105 11 43 4
79 8 81 10 4 4 255 -3 312 -9z m455 -105 c-11 -10 -105 -42 -105 -36 0 3 17
13 38 24 37 20 84 29 67 12z m4440 -300 c-8 -28 11 -46 37 -35 15 7 35 7 57 2
l35 -10 -35 -20 c-112 -67 -356 -242 -419 -300 -14 -13 -43 -38 -65 -57 -22
-18 -118 -108 -214 -200 -96 -91 -201 -192 -235 -224 -143 -136 -316 -311
-316 -319 0 -5 15 5 33 24 50 50 169 159 217 198 50 41 76 63 111 95 15 12 39
31 55 40 16 10 -84 -94 -221 -231 -269 -268 -355 -348 -389 -365 -18 -9 17 26
62 62 6 5 12 15 12 21 0 6 -9 3 -21 -8 -46 -42 -167 -106 -239 -128 -62 -18
-81 -31 -99 -64 -11 -21 -10 -23 6 -22 39 4 74 -4 41 -10 -4 0 -26 -7 -47 -15
-36 -12 -39 -12 -34 2 5 12 -8 8 -48 -13 -49 -26 -54 -32 -54 -63 -1 -21 -8
-38 -20 -47 -28 -20 -40 -12 -37 24 5 44 -17 42 -69 -7 -24 -21 -49 -37 -56
-34 -18 7 -86 -21 -120 -49 -15 -13 -77 -74 -137 -135 -109 -113 -152 -143
-122 -85 8 15 31 44 52 65 68 70 21 54 -65 -22 -13 -11 -26 -21 -28 -21 -5 0
51 104 60 111 5 3 8 9 7 13 -1 4 3 20 9 36 5 17 10 31 10 33 0 1 7 25 16 52 8
28 15 60 15 72 0 24 57 86 70 78 4 -3 14 3 21 13 13 15 12 16 -3 3 -28 -21
-21 -7 9 20 14 13 22 17 18 9 -8 -13 -6 -13 8 -1 9 7 14 18 10 24 -3 5 -2 7 4
4 5 -3 38 23 73 58 46 47 67 62 76 54 15 -12 28 5 21 25 -3 8 15 36 39 63 130
140 154 171 148 187 -5 12 -9 11 -24 -2 -29 -27 -74 -56 -89 -59 -7 -1 -26
-14 -41 -28 -16 -15 -31 -25 -34 -23 -3 1 -22 -9 -40 -24 -19 -16 -41 -28 -48
-27 -7 0 -4 4 7 9 19 8 19 9 -2 9 -13 1 -23 6 -23 12 0 8 -5 8 -15 -1 -12 -10
-20 -9 -40 4 -14 9 -25 22 -25 29 0 8 3 9 8 1 4 -6 18 -17 31 -23 13 -7 -1 12
-32 43 -30 31 -63 57 -73 59 -11 2 -27 7 -37 12 -17 7 -17 9 -1 26 9 11 23 19
29 19 22 0 27 32 8 45 -17 13 -17 14 2 36 11 13 14 19 5 14 -41 -25 -52 1 -25
60 13 28 13 29 14 6 l1 -24 24 26 c23 25 46 21 30 -5 -4 -6 -8 -22 -10 -35 -2
-21 0 -22 13 -11 9 7 25 12 35 10 12 -2 18 2 17 10 -3 28 3 44 29 73 15 17 24
26 20 21 -15 -20 -7 -28 19 -21 41 10 51 21 88 99 19 39 44 77 55 84 18 11 21
11 14 0 -9 -14 39 21 88 64 25 23 34 26 50 17 23 -12 73 4 64 20 -4 5 12 24
34 42 22 18 40 39 40 46 0 6 16 13 38 15 29 2 37 7 38 23 0 11 -3 25 -7 30
-19 28 11 75 56 89 28 8 45 -5 47 -38 3 -28 28 -59 35 -41 8 24 20 33 49 38
17 3 41 10 52 16 11 6 28 11 38 11 16 0 15 -2 -2 -22 -19 -21 -19 -21 1 -14
34 14 89 25 96 20 4 -2 10 0 14 6 4 6 10 8 15 5 14 -9 76 21 92 44 11 15 29
22 69 25 56 5 172 31 200 46 8 4 22 4 30 -1 21 -11 66 0 47 12 -26 17 5 41 57
45 28 2 59 5 70 8 11 2 30 0 42 -5 28 -10 58 22 55 59 l-2 27 72 -5 c44 -3 73
-10 76 -17 2 -8 -6 -13 -23 -13 -30 0 -65 -16 -65 -30 0 -16 36 -12 50 5 14
17 29 19 50 5 13 -9 12 -12 -4 -25 -26 -20 -17 -19 24 1 31 16 46 19 95 23 15
1 17 3 6 10 -11 7 -10 11 4 19 11 5 15 14 10 21 -5 9 -13 7 -29 -7 -37 -34
-67 -46 -77 -31 -11 17 -11 29 -1 30 32 3 52 13 104 54 72 56 92 64 141 63 29
-2 36 -5 32 -17z m1190 -470 c3 -5 1 -12 -5 -16 -5 -3 -10 1 -10 9 0 18 6 21
15 7z m187 -144 c18 -13 51 -34 73 -45 22 -11 43 -21 46 -23 3 -2 13 2 22 10
22 17 47 -1 47 -33 0 -17 12 -27 54 -45 29 -12 64 -34 77 -48 l24 -27 -47 27
c-26 15 -49 23 -52 18 -3 -4 17 -34 44 -65 27 -31 53 -62 57 -69 4 -7 52 -39
106 -71 53 -32 100 -62 103 -67 3 -5 14 -9 25 -9 11 0 18 4 14 9 -8 15 31 32
62 28 29 -4 31 -7 62 -84 29 -73 14 -185 -17 -125 -5 9 -8 30 -6 46 4 35 -5
53 -17 35 -7 -12 -4 -86 6 -141 5 -23 3 -23 -26 3 -19 17 -21 22 -9 29 13 8
12 12 -5 24 -32 24 -42 19 -48 -26 -4 -33 0 -51 19 -83 35 -61 29 -68 -8 -10
-18 28 -31 53 -30 57 1 5 -2 7 -6 5 -5 -1 -29 15 -53 35 -24 21 -49 42 -56 48
-7 5 -15 10 -19 10 -3 0 -19 9 -35 21 -16 11 -29 18 -29 15 0 -3 -21 5 -47 16
-90 40 -317 24 -478 -34 -104 -37 -378 -177 -517 -265 -21 -12 -40 -23 -42
-23 -6 0 -276 -162 -323 -195 -20 -13 -41 -21 -46 -18 -6 3 -7 1 -3 -5 4 -7 1
-12 -8 -12 -9 0 -16 -4 -16 -10 0 -5 -9 -10 -20 -10 -11 0 -20 -4 -20 -8 0 -4
-15 -16 -32 -27 -60 -34 -290 -208 -357 -268 -57 -51 -2 17 142 176 21 23 57
64 80 90 23 27 58 66 77 86 19 21 60 66 90 101 48 55 153 167 310 329 25 25
61 57 80 71 19 13 40 28 45 32 6 5 46 33 90 64 44 31 103 78 130 104 47 46
157 110 188 110 31 0 101 46 129 84 34 47 39 79 8 51 -12 -11 -20 -13 -20 -6
0 6 25 36 55 67 45 45 52 56 38 60 -10 3 -34 12 -53 18 -19 7 -48 12 -64 11
l-29 -2 22 17 c26 19 97 26 116 10 9 -8 14 -6 19 7 6 14 10 12 26 -14 10 -17
33 -42 52 -56z m-257 43 c-3 -5 -12 -10 -18 -10 -7 0 -6 4 3 10 19 12 23 12
15 0z m-4312 -16 c-1 -7 12 -18 30 -25 18 -7 39 -20 47 -28 13 -13 13 -14 -7
-9 -14 4 -23 0 -26 -11 -3 -9 -15 -31 -27 -48 l-22 -33 35 0 c38 0 58 -17 37
-30 -16 -10 -42 -1 -34 11 3 5 -3 9 -13 9 -51 0 -168 88 -160 120 3 11 -2 21
-12 25 -12 6 -8 10 19 20 44 15 136 15 133 -1z m3267 -122 c0 -4 -12 -21 -27
-38 -16 -16 -48 -53 -73 -80 -25 -28 -56 -56 -69 -63 l-24 -13 20 28 c11 16
24 39 27 52 4 12 11 22 15 22 5 0 19 10 33 23 25 22 91 76 96 77 1 0 2 -3 2
-8z m-2299 -427 c17 -3 34 -7 38 -11 3 -4 -6 -4 -21 0 -29 7 -36 -2 -17 -21 8
-8 5 -13 -11 -18 -22 -7 -24 -42 -2 -37 30 6 8 -30 -33 -54 -25 -14 -45 -28
-45 -30 0 -3 12 -15 27 -28 14 -12 23 -28 20 -33 -10 -16 -42 -9 -42 8 -1 8
-8 25 -17 39 -16 23 -16 32 -3 94 18 83 40 123 60 106 7 -6 28 -13 46 -15z
m-1328 -55 c-18 -31 -25 -35 -37 -23 -3 4 6 17 21 30 36 29 37 29 16 -7z m-45
-56 c2 -16 -1 -25 -8 -22 -6 2 -11 7 -11 11 1 4 1 17 1 29 0 28 13 15 18 -18z
m1459 -129 c-55 -55 -93 -87 -95 -79 -2 8 -8 14 -13 14 -14 0 -11 15 10 39 19
22 19 23 1 57 l-20 34 25 6 c32 8 47 -3 39 -29 -5 -17 3 -13 29 16 30 32 39
37 55 28 16 -9 21 -7 25 11 5 18 8 19 21 9 13 -11 3 -26 -77 -106z m1687 106
c3 -5 -13 -30 -37 -55 -32 -36 -51 -47 -78 -50 -19 -2 -49 -11 -67 -20 -36
-19 -46 -20 -37 -6 4 6 24 18 46 27 43 17 64 44 48 60 -15 15 21 41 66 46 22
2 43 4 47 5 4 1 9 -2 12 -7z m-31 -92 c-25 -44 -164 -209 -208 -247 -19 -18
-44 -32 -54 -32 -20 0 -31 -19 -31 -50 0 -22 -36 -50 -62 -50 -18 0 -18 1 -1
27 10 15 17 34 15 43 -1 9 12 31 30 48 17 18 26 32 19 32 -7 0 2 15 21 33 55
55 68 75 28 45 -19 -14 -50 -33 -67 -42 -43 -22 -44 -6 -3 56 44 67 54 73 77
49 19 -20 19 -20 78 19 62 42 85 49 85 28 0 -10 2 -10 9 0 4 8 11 13 15 13 4
-1 18 12 32 29 33 39 40 38 17 -1z m-4908 -149 c-3 -5 -13 -10 -21 -10 -8 0
-12 5 -9 10 3 6 13 10 21 10 8 0 12 -4 9 -10z m-555 -230 c0 -28 -30 -38 -46
-15 -17 23 -9 35 22 35 17 0 24 -5 24 -20z m5068 -62 c-25 -24 -69 -63 -99
-88 -70 -59 -140 -129 -214 -214 -33 -38 -87 -97 -120 -131 -33 -34 -72 -76
-88 -93 -15 -18 -34 -32 -42 -32 -8 0 -18 -6 -22 -13 -10 -17 -92 -72 -98 -65
-2 2 7 16 21 31 14 15 20 27 15 27 -5 0 -13 -5 -16 -11 -4 -6 -57 -43 -119
-83 -111 -73 -176 -129 -176 -153 0 -7 -9 -21 -20 -31 -24 -22 -97 -62 -114
-62 -7 0 -18 -10 -25 -22 -7 -13 -47 -48 -88 -78 -41 -30 -83 -65 -93 -78 -10
-12 -21 -19 -23 -15 -10 16 199 218 474 458 121 106 317 279 389 345 47 42
132 119 190 171 58 52 121 101 140 109 19 7 64 29 99 47 35 19 66 31 69 29 2
-3 -15 -25 -40 -48z m3184 25 c22 -25 35 -53 42 -88 3 -16 8 -41 12 -54 5 -17
4 -22 -4 -17 -16 10 -15 -3 3 -34 8 -14 14 -33 15 -42 0 -31 -18 -19 -31 19
-10 33 -13 35 -20 18 -4 -11 -8 -14 -8 -7 -1 8 -7 28 -15 45 -47 108 -58 147
-46 162 16 20 33 19 52 -2z m-8502 -109 c0 -8 -4 -12 -10 -9 -9 6 -13 -7 -13
-47 0 -21 -15 -23 -39 -4 -23 17 -23 26 2 26 11 0 20 5 20 11 0 7 8 18 18 25
22 17 22 17 22 -2z m2435 -33 c-3 -6 -16 -16 -28 -22 -21 -11 -21 -10 2 15 23
25 40 29 26 7z m6153 -216 c-3 -3 -9 2 -12 12 -6 14 -5 15 5 6 7 -7 10 -15 7
-18z m-9653 -44 c-6 -5 -41 -25 -80 -45 -75 -39 -75 -48 1 -16 42 19 46 19 33
3 -7 -10 -18 -22 -24 -28 -17 -16 -99 -116 -139 -168 l-36 -49 3 46 c2 25 1
65 -3 89 -3 24 -3 52 1 63 4 10 8 16 8 12 1 -8 114 38 186 75 54 28 64 32 50
18z m4792 -20 c10 -16 9 -20 -10 -26 -12 -4 -25 -7 -28 -7 -3 1 -4 -9 -2 -21
4 -26 2 -29 -56 -82 l-44 -40 22 40 23 40 -32 -35 c-30 -34 -31 -35 -46 -15
-15 20 -15 20 -30 1 -8 -11 -14 -23 -14 -27 0 -4 -17 -10 -37 -14 -20 -4 -42
-13 -48 -21 -5 -8 -28 -17 -50 -21 -40 -6 -40 -5 -20 13 42 40 102 83 108 78
15 -15 57 10 115 66 52 51 106 88 132 90 3 0 11 -9 17 -19z m4859 -100 c-23
-43 -36 -141 -20 -141 7 0 20 -20 30 -45 18 -49 43 -61 39 -20 -2 14 1 27 6
31 5 3 9 -2 9 -10 0 -9 9 -16 20 -16 11 0 21 -6 21 -12 4 -35 -2 -64 -16 -74
-8 -6 -15 -22 -15 -35 l0 -23 -17 24 c-10 14 -32 54 -49 89 l-32 65 -3 -51
c-4 -45 -1 -53 16 -59 11 -3 23 -6 28 -5 4 1 7 -6 7 -14 0 -21 1 -27 11 -54 5
-13 12 -38 14 -55 14 -90 17 -117 21 -181 6 -91 -11 -76 -37 32 -17 73 -40
110 -61 97 -10 -6 -6 -37 11 -78 9 -24 9 -35 -3 -60 -8 -17 -16 -76 -19 -131
-5 -88 -4 -98 9 -81 11 16 14 16 14 4 0 -18 -17 -74 -33 -105 -5 -13 -8 -25
-5 -29 7 -6 -25 -153 -46 -212 -11 -32 -12 -42 -3 -39 6 2 19 29 27 60 8 30
25 68 38 84 l23 28 -7 -45 c-11 -80 -13 -94 -18 -140 -3 -25 -10 -61 -16 -80
-13 -44 -13 -60 0 -40 8 12 10 12 10 1 0 -27 -24 -97 -44 -126 l-21 -30 -5 40
c-3 26 -11 41 -21 43 -14 2 -15 -3 -10 -30 8 -38 -4 -118 -21 -133 -8 -7 -9
-7 -4 2 3 6 2 14 -3 17 -5 4 -14 -15 -20 -41 -5 -27 -14 -59 -20 -73 -9 -24
-10 -23 -10 11 -1 42 -9 53 -27 38 -10 -8 -10 -16 -1 -36 7 -17 8 -28 2 -30
-32 -11 -37 -20 -24 -41 10 -17 10 -23 0 -36 -8 -9 -19 -16 -27 -16 -18 0 -24
-13 -33 -70 -8 -48 -7 -50 10 -34 19 17 49 13 49 -7 0 -33 -92 -200 -129 -234
-23 -22 -37 -43 -34 -51 3 -8 -1 -14 -10 -14 -8 0 -20 -13 -27 -30 -12 -29
-40 -60 -40 -44 0 5 12 29 26 54 30 53 39 100 19 100 -8 0 -17 -4 -20 -10 -10
-15 -23 -12 -28 8 -4 16 -4 16 -12 -1 -5 -12 -1 -25 14 -41 l21 -23 -27 -36
c-18 -24 -34 -34 -45 -31 -13 4 -19 -6 -28 -50 -8 -39 -15 -53 -25 -50 -7 3
-16 12 -19 21 -5 12 -12 6 -31 -21 -29 -43 -31 -50 -9 -42 17 6 16 5 -28 -61
-16 -23 -32 -43 -36 -45 -14 -6 -100 -126 -95 -132 16 -16 33 -2 48 38 17 44
45 69 45 41 0 -13 -27 -56 -143 -222 -31 -44 -57 -85 -57 -90 0 -14 -39 -47
-47 -40 -3 4 -8 20 -9 35 -3 21 7 39 42 77 56 62 93 111 74 100 -8 -5 -26 -22
-39 -38 -14 -16 -30 -35 -37 -41 -22 -22 -104 -149 -104 -161 0 -24 -52 -64
-103 -81 -49 -15 -117 -67 -117 -87 0 -5 14 -7 30 -5 l31 5 -36 -37 c-41 -42
-43 -50 -12 -43 21 5 21 4 -3 -16 -14 -11 -32 -21 -41 -21 -9 0 -19 -7 -23
-15 -3 -9 -25 -24 -50 -34 -40 -18 -82 -58 -71 -70 3 -2 14 4 25 14 11 10 23
15 27 12 14 -15 -21 -84 -58 -115 -46 -39 -51 -30 -8 17 16 18 28 36 25 38 -9
9 -52 -41 -79 -89 -23 -42 -23 -47 -6 -38 16 9 19 7 19 -12 0 -13 -10 -32 -22
-43 -40 -34 -90 -65 -98 -60 -4 2 -12 -7 -19 -22 -6 -14 -28 -46 -49 -71 -23
-29 -30 -43 -19 -39 11 4 17 2 17 -7 0 -15 -21 -34 -67 -59 -30 -16 -31 -16
-26 1 4 16 0 18 -27 14 -29 -4 -32 -3 -25 17 7 22 73 90 88 91 4 0 7 5 7 11 0
18 -74 -33 -120 -83 -23 -27 -38 -48 -32 -48 6 0 16 9 22 21 7 11 14 18 17 15
7 -7 -25 -57 -46 -73 -20 -15 -28 -8 -12 11 9 11 9 16 -1 22 -7 4 -10 4 -7 0
4 -3 -13 -28 -37 -54 -32 -34 -40 -48 -28 -50 9 -2 14 -12 12 -25 -2 -14 -17
-25 -48 -36 -75 -26 -87 -39 -87 -94 0 -42 3 -48 19 -44 32 9 29 -10 -8 -47
-20 -20 -33 -40 -29 -44 6 -7 17 4 71 73 26 33 45 28 21 -7 -41 -62 -128 -122
-192 -134 -29 -5 -33 14 -14 63 17 43 21 94 8 109 -9 11 -30 -6 -106 -81 -52
-52 -114 -107 -138 -122 -64 -40 -83 -95 -46 -130 18 -18 18 -19 -12 -42 l-29
-25 7 24 c9 28 8 27 -75 -70 -30 -36 -79 -87 -107 -115 -58 -54 -68 -89 -31
-101 l22 -7 -25 -21 c-14 -12 -23 -29 -21 -39 4 -20 -18 -48 -62 -80 l-28 -20
7 22 c10 34 -11 25 -65 -27 -28 -27 -52 -46 -55 -44 -11 11 40 75 55 68 3 -2
18 12 33 30 28 33 31 46 5 21 -35 -33 -76 -52 -115 -52 -24 0 -42 -4 -40 -10
1 -5 10 -10 20 -9 33 1 17 -24 -30 -46 -59 -28 -114 -66 -173 -120 -50 -46
-94 -72 -128 -77 -19 -3 -10 10 45 68 91 96 122 129 228 245 50 53 117 127
151 163 34 36 73 80 88 96 15 17 46 50 69 75 23 25 89 97 147 160 143 156 307
325 414 429 49 47 106 103 127 124 21 20 42 37 46 37 5 0 14 9 21 21 12 18 8
18 -35 -7 l-48 -27 71 74 c39 41 97 106 129 144 79 95 163 175 184 175 5 0 11
4 13 8 2 5 50 43 108 86 58 42 117 89 132 104 16 15 28 22 28 16 0 -6 -9 -19
-20 -29 -11 -10 -18 -20 -16 -22 4 -4 -136 -221 -165 -257 -41 -52 -79 -108
-79 -119 0 -6 6 -4 12 7 12 21 35 50 61 78 9 10 15 18 12 18 -5 0 2 10 31 43
22 26 154 227 154 236 0 5 30 34 68 64 149 123 296 267 389 382 43 53 137 195
161 242 52 103 48 213 -13 333 -35 68 -78 108 -120 112 l-35 3 76 80 c141 148
301 320 340 365 21 24 47 54 57 65 38 42 155 203 200 275 46 75 101 190 92
190 -3 0 0 10 7 23 7 12 13 24 13 27 1 3 6 21 13 40 15 45 24 120 14 120 -4 0
-9 -12 -10 -26 -2 -26 -27 -122 -41 -159 -46 -121 -190 -353 -282 -455 -59
-65 -139 -148 -139 -143 0 4 60 82 85 109 40 45 265 379 265 394 0 6 5 10 10
10 6 0 10 4 10 10 0 5 11 33 23 62 13 29 30 68 37 87 16 39 21 177 8 203 -5
10 -4 19 2 23 5 3 10 12 10 18 0 8 -3 8 -9 -1 -7 -11 -10 -10 -15 3 -9 25 -7
37 6 29 7 -4 8 -3 4 5 -4 6 -12 8 -18 5 -7 -5 -9 0 -5 15 3 15 -1 24 -14 31
-10 6 -19 15 -19 21 0 6 4 7 10 4 6 -3 7 1 3 10 -4 11 -8 13 -12 6 -5 -7 -16
1 -29 19 -13 17 -42 43 -65 58 -23 15 -48 33 -55 39 -7 7 -20 13 -28 13 -8 0
43 57 112 128 167 168 346 358 357 377 15 28 28 15 13 -14z m-1352 -62 c-22
-22 -48 -45 -59 -51 -16 -9 -18 -8 -7 3 18 20 15 32 -8 26 -11 -3 -20 -3 -20
-1 0 3 116 60 129 63 2 1 -14 -17 -35 -40z m-184 -58 c0 -11 -45 -41 -62 -41
-7 0 0 12 15 25 29 26 47 32 47 16z m-180 -40 c0 -5 -24 -24 -52 -42 -70 -45
-118 -88 -118 -105 0 -17 1 -17 36 -4 24 9 26 8 21 -10 -7 -27 7 -25 26 3 10
15 12 29 6 38 -12 19 -11 39 2 39 6 0 34 11 61 25 59 30 76 24 33 -11 -28 -23
-29 -24 -7 -24 13 0 22 -6 22 -15 0 -19 -45 -47 -122 -76 -65 -24 -98 -58 -98
-99 0 -15 -7 -33 -15 -40 -23 -19 -8 -30 22 -15 49 25 44 4 -9 -41 -52 -44
-76 -74 -61 -74 5 0 37 29 72 65 35 36 68 65 73 65 19 0 4 -21 -62 -83 -49
-46 -96 -78 -162 -110 -114 -55 -128 -46 -73 43 32 51 48 106 37 126 -7 13
-16 10 -58 -27 -27 -23 -51 -45 -54 -49 -8 -11 -162 -134 -221 -178 -57 -41
-82 -42 -72 -1 4 13 17 21 44 25 32 5 39 11 39 30 0 26 47 64 86 68 29 3 66
34 107 89 31 41 31 43 -9 23 -29 -16 -44 -13 -44 8 0 39 294 246 350 246 9 0
26 11 36 25 10 14 24 23 30 21 7 -3 38 13 70 34 66 44 64 43 64 31z m-8147
-546 c-4 -29 -2 -45 5 -45 6 0 12 8 14 18 4 17 35 -40 64 -118 7 -19 13 -30
13 -23 1 7 10 10 24 6 40 -10 336 -12 342 -2 4 5 10 7 14 5 11 -7 199 41 220
55 24 17 -48 -50 -105 -97 -27 -23 -65 -57 -84 -75 -60 -58 -77 -67 -46 -26
16 21 26 40 22 44 -20 20 -144 -95 -230 -215 l-59 -82 -14 26 c-7 15 -12 38
-11 53 1 14 -4 36 -10 48 -7 12 -10 36 -8 55 5 42 -7 64 -44 83 -16 8 -34 25
-40 36 -11 19 -10 20 9 9 30 -16 26 1 -10 37 -16 18 -32 44 -35 60 -3 15 -9
30 -13 33 -4 3 -21 27 -39 53 -30 44 -31 49 -17 71 8 12 12 26 8 29 -3 4 3 7
15 7 20 0 21 -4 15 -45z m5212 16 c-3 -11 -27 -34 -53 -52 l-47 -31 35 38 c19
20 42 45 50 54 19 21 24 18 15 -9z m2109 -96 c-4 -8 -10 -12 -15 -9 -14 8 -10
24 6 24 9 0 12 -6 9 -15z m30 -40 c-5 -12 -10 -13 -20 -4 -19 15 -18 19 6 19
13 0 18 -5 14 -15z m-151 -22 c-6 -15 -4 -16 9 -6 12 11 22 6 57 -30 78 -78
76 -72 44 -94 -53 -37 -56 -38 -42 -12 11 21 11 23 -3 11 -13 -10 -17 -10 -22
3 -3 9 -10 13 -16 10 -5 -3 -10 -4 -10 -1 0 2 -3 12 -6 21 -4 9 -3 15 2 14 28
-5 24 4 -6 15 -20 7 -40 9 -46 4 -7 -5 -14 -2 -18 9 -5 13 2 26 24 45 35 33
42 34 33 11z m-2236 -118 c-1 -1 -20 -12 -42 -24 l-40 -23 34 36 c24 25 37 32
42 24 5 -7 7 -13 6 -13z m1954 -191 l46 -95 -40 -40 c-33 -32 -37 -42 -27 -54
7 -8 20 -15 29 -15 11 0 4 -12 -21 -35 -21 -20 -37 -39 -36 -43 5 -17 -25 -52
-78 -92 -56 -42 -57 -42 -50 -15 l7 27 -33 -23 c-18 -12 -59 -44 -90 -71 -32
-27 -58 -45 -58 -40 0 16 72 92 88 92 16 0 72 48 72 62 0 4 -11 -1 -24 -13
-41 -36 -110 -65 -149 -63 -21 1 -42 -4 -48 -13 -17 -20 -3 -28 26 -15 14 6
25 9 25 6 0 -14 -42 -45 -106 -78 l-71 -37 -69 37 c-38 20 -70 38 -72 39 -1 1
13 13 32 26 18 12 32 28 29 35 -5 13 39 49 97 80 19 10 46 28 59 39 13 11 21
14 17 7 -4 -7 12 6 36 29 24 22 94 75 157 118 63 42 117 83 119 90 6 19 -43
-10 -105 -61 -72 -60 -200 -106 -133 -48 13 11 26 20 29 20 3 0 25 17 48 38
130 116 234 202 243 201 3 0 26 -43 51 -95z m-5696 46 c-10 -11 -21 -18 -23
-15 -3 3 3 12 14 20 27 20 30 18 9 -5z m7654 -77 c-72 -78 -331 -336 -303
-303 16 19 35 40 42 47 7 6 9 13 5 16 -5 3 -27 -11 -49 -31 -102 -92 -148
-131 -152 -128 -5 6 208 218 273 272 33 27 65 54 71 59 6 6 23 19 38 30 16 11
33 25 40 30 16 15 60 45 65 45 3 0 -11 -17 -30 -37z m-7739 7 c0 -5 -5 -10
-11 -10 -5 0 -7 5 -4 10 3 6 8 10 11 10 2 0 4 -4 4 -10z m3509 -17 c-8 -10
-30 -36 -51 -58 -20 -22 -47 -52 -60 -66 -91 -100 -110 -120 -115 -115 -3 2 2
15 10 27 23 32 211 226 221 228 5 0 2 -7 -5 -16z m910 -243 c-22 -22 -43 -40
-47 -40 -3 0 12 18 33 40 21 22 42 40 47 40 4 0 -11 -18 -33 -40z m2830 -122
c-29 -35 -101 -109 -159 -165 -109 -107 -126 -134 -37 -60 28 23 56 45 62 49
5 4 24 19 42 33 40 32 144 95 156 95 5 0 -6 -12 -24 -27 -19 -16 -44 -37 -55
-48 -18 -18 -136 -124 -188 -168 -12 -10 -32 -28 -45 -39 -24 -20 -25 -20 -38
-2 -12 17 -11 21 7 36 24 19 26 30 4 21 -9 -3 29 41 85 98 55 57 131 136 168
175 38 39 70 69 72 68 2 -2 -20 -32 -50 -66z m-6439 25 c0 -8 -17 -27 -125
-148 -34 -38 -86 -99 -115 -135 -30 -36 -78 -91 -109 -122 l-55 -58 -41 43
c-23 23 -60 53 -83 67 -42 25 -52 39 -29 41 63 4 122 35 355 190 107 71 195
129 198 129 2 0 4 -3 4 -7z m6696 -130 c-4 -5 -43 -46 -86 -93 -198 -215 -417
-439 -424 -433 -4 5 -32 11 -53 12 -7 1 -13 6 -13 12 0 7 12 9 32 7 28 -4 29
-4 13 8 -10 7 -23 15 -29 18 -7 3 -5 10 6 19 20 16 190 172 286 262 35 33 70
59 78 57 8 -2 20 2 26 7 119 97 193 152 164 124z m-412 -184 c-56 -56 -96 -89
-103 -84 -8 4 1 18 25 38 21 18 65 55 98 84 34 29 63 53 66 53 3 0 -36 -41
-86 -91z m-280 -114 c-4 -8 -8 -15 -10 -15 -2 0 -4 7 -4 15 0 8 4 15 10 15 5
0 7 -7 4 -15z m101 5 c8 -13 -5 -13 -25 0 -13 8 -13 10 2 10 9 0 20 -4 23 -10z
m-47 -46 c-4 -3 -16 -3 -28 1 -17 5 -19 9 -9 21 11 13 14 13 28 0 8 -9 12 -18
9 -22z m92 23 c0 -7 -13 -25 -28 -40 -26 -25 -30 -26 -48 -12 -19 15 -11 20
26 16 13 -2 13 -1 0 8 -13 9 -12 12 5 25 25 19 45 20 45 3z m-6894 -62 c15
-11 55 -46 88 -77 55 -52 58 -58 36 -58 l-24 0 23 -16 c13 -9 19 -19 14 -23
-24 -15 -234 -300 -271 -367 -9 -15 -12 -16 -26 -5 -9 8 -14 16 -12 19 7 6
-50 62 -63 62 -6 0 -11 3 -11 8 0 4 -29 28 -65 55 -35 26 -77 65 -92 87 -15
21 -37 41 -48 45 -17 5 -15 8 15 19 41 15 118 55 108 56 -4 0 -28 -9 -53 -20
-25 -11 -65 -29 -90 -40 -62 -27 -86 -26 -44 3 51 34 180 107 189 107 5 0 10
4 12 8 2 5 61 47 132 94 101 68 132 84 142 75 8 -7 26 -21 40 -32z m6819 -25
c3 -5 2 -10 -4 -10 -5 0 -13 5 -16 10 -3 6 -2 10 4 10 5 0 13 -4 16 -10z
m-261 -22 c-10 -12 -28 -32 -39 -44 -78 -84 -69 -92 14 -11 34 33 73 62 84 63
12 2 16 0 10 -2 -7 -3 -13 -10 -13 -15 0 -6 5 -7 12 -3 7 4 8 3 4 -4 -4 -6
-14 -8 -23 -5 -12 5 -15 2 -10 -9 3 -9 -1 -24 -8 -35 -8 -10 -15 -13 -15 -7 0
5 5 15 12 22 7 7 9 12 5 12 -4 0 -35 -30 -70 -66 -82 -88 -327 -331 -327 -325
0 2 11 23 25 46 13 23 22 45 18 48 -3 4 10 26 29 49 41 50 297 308 305 308 4
0 -2 -10 -13 -22z m87 -31 c-10 -9 -11 -8 -5 6 3 10 9 15 12 12 3 -3 0 -11 -7
-18z m-1151 -7 c0 -5 -4 -10 -10 -10 -5 0 -10 5 -10 10 0 6 5 10 10 10 6 0 10
-4 10 -10z m1218 -33 l22 -24 -22 -29 c-12 -16 -48 -54 -79 -84 -97 -94 -243
-233 -292 -277 -26 -24 -43 -43 -39 -43 5 0 17 8 28 18 10 9 41 35 68 57 27
21 60 48 72 60 12 11 43 38 69 60 26 22 55 47 64 55 9 8 51 46 93 83 l77 68
50 -15 c30 -9 53 -11 56 -5 4 5 10 9 16 9 5 0 -32 -42 -81 -93 -59 -60 -103
-98 -128 -106 -27 -10 -137 -114 -426 -402 -214 -214 -402 -396 -418 -404 -29
-14 -30 -13 -43 18 -8 18 -17 46 -20 63 l-7 29 22 -25 c17 -20 15 -13 -9 36
l-30 61 23 24 c28 30 255 241 337 314 63 55 104 90 144 120 62 46 253 242 271
278 10 18 27 45 38 62 22 31 107 115 117 115 3 0 15 -11 27 -23z m-7226 -189
c-20 -21 -23 -21 -38 -6 -16 16 -15 17 17 26 43 12 48 7 21 -20z m8228 -28 c0
-5 -5 -10 -11 -10 -5 0 -7 5 -4 10 3 6 8 10 11 10 2 0 4 -4 4 -10z m-3390 -50
c0 -5 -2 -10 -4 -10 -3 0 -8 5 -11 10 -3 6 -1 10 4 10 6 0 11 -4 11 -10z
m1900 -1 c0 -11 -115 -129 -126 -129 -5 0 118 140 124 140 1 0 2 -5 2 -11z
m-1865 -79 c15 -22 29 -40 31 -40 2 0 -4 16 -12 35 -29 70 37 19 68 -53 20
-44 20 -46 2 -59 -28 -20 -42 -16 -60 18 -11 23 -19 28 -27 20 -7 -7 -7 -18 2
-37 6 -15 9 -29 6 -32 -7 -7 -7 -8 -58 97 -34 70 -44 98 -36 107 15 18 48 -5
84 -56z m2645 -104 c0 -2 -8 -10 -17 -17 -16 -13 -17 -12 -4 4 13 16 21 21 21
13z m-106 -128 c-45 -53 -146 -152 -167 -163 -51 -26 -62 -25 -31 2 77 70 95
83 105 78 5 -4 8 -2 7 3 -2 6 20 31 47 56 55 50 68 58 39 24z m-2279 -160 c15
-22 14 -24 -11 -47 -26 -21 -29 -22 -40 -6 -10 13 -9 22 4 46 20 35 26 36 47
7z m1975 -8 c0 -11 -304 -318 -366 -371 -23 -18 -59 -47 -80 -64 -21 -16 -63
-50 -94 -75 -100 -82 -96 -74 21 41 169 166 313 301 479 448 39 34 40 35 40
21z m-2987 -68 c-171 -153 -260 -216 -143 -102 74 72 162 141 179 140 4 0 -13
-17 -36 -38z m137 8 c-46 -38 -60 -39 -18 0 18 16 37 30 43 30 5 0 -6 -13 -25
-30z m3630 -41 c-14 -12 -47 -42 -75 -67 -70 -66 -87 -79 -79 -61 7 15 162
149 172 149 4 -1 -4 -10 -18 -21z m-7886 -89 c14 -5 26 -14 26 -19 0 -13 -37
-2 -51 15 -14 17 -9 17 25 4z m7095 -94 c-30 -39 -51 -56 -73 -60 -18 -4 -78
-43 -142 -94 -61 -49 -160 -124 -220 -167 -60 -44 -110 -83 -112 -87 -2 -5
-10 -8 -18 -8 -8 0 -14 -4 -14 -10 0 -5 -7 -10 -15 -10 -24 0 -18 47 8 65 12
9 59 43 104 76 45 32 85 59 88 59 3 0 11 5 18 10 7 6 66 46 132 90 66 43 125
83 130 87 6 5 39 29 75 53 36 25 67 49 69 53 1 5 5 6 8 3 3 -3 -14 -29 -38
-60z m-7095 1 c-7 -23 -44 -66 -44 -51 0 6 7 19 15 30 8 10 15 27 15 37 0 10
5 15 10 12 6 -4 8 -16 4 -28z m4509 -18 c4 -16 -5 -27 -49 -55 -58 -37 -65
-45 -34 -37 32 9 23 -2 -35 -42 -30 -21 -55 -39 -55 -41 0 -10 135 55 160 78
18 16 33 28 34 26 2 -2 14 -23 27 -49 l25 -45 -60 -44 c-34 -25 -65 -48 -71
-53 -5 -4 -46 -33 -90 -64 -44 -32 -83 -61 -86 -66 -7 -10 -49 9 -49 21 0 5 5
13 12 20 7 7 8 12 2 12 -5 0 -15 -5 -20 -10 -7 -7 -29 9 -68 50 l-57 61 64 62
c36 34 87 78 113 97 l49 34 -32 -37 c-44 -50 -66 -94 -52 -103 6 -3 17 3 25
14 8 12 37 34 64 49 27 15 49 33 47 40 -1 8 116 102 129 103 1 0 4 -9 7 -21z
m-405 -105 c2 -11 -11 -36 -30 -57 -30 -34 -35 -36 -52 -22 -18 14 -18 16 20
59 41 47 57 52 62 20z m-138 -118 c0 -2 -8 -10 -17 -17 -16 -13 -17 -12 -4 4
13 16 21 21 21 13z m-1126 -25 c17 -19 16 -21 -36 -50 -29 -16 -86 -51 -126
-76 -78 -50 -104 -55 -50 -10 50 41 119 100 153 129 36 31 37 31 59 7z m-1220
-72 l39 -51 -29 -23 c-18 -14 -31 -19 -35 -13 -4 6 -12 7 -18 4 -6 -4 -11 -2
-11 3 0 6 -5 11 -11 11 -6 0 -28 15 -48 33 l-36 32 45 27 c25 15 50 27 55 27
6 0 28 -23 49 -50z m4129 -164 c4 -8 2 -17 -3 -20 -6 -4 -10 -4 -10 -1 0 2 -3
11 -6 20 -3 9 -2 16 4 16 5 0 12 -7 15 -15z m-4283 -57 c0 -13 -23 -5 -28 10
-2 7 2 10 12 6 9 -3 16 -11 16 -16z m4305 2 c-10 -11 -20 -18 -23 -16 -5 6 21
35 32 36 5 0 1 -9 -9 -20z m-124 -49 c-10 -9 -42 -37 -72 -63 -92 -80 -102
-88 -106 -88 -11 0 19 36 91 110 63 65 81 78 92 69 12 -10 11 -14 -5 -28z m-8
-63 c-48 -40 -99 -83 -113 -95 -14 -13 -29 -23 -35 -23 -10 0 19 28 111 107
87 74 99 82 112 83 7 0 -26 -33 -75 -72z m873 -67 c-15 -16 -28 -33 -28 -38
-1 -30 -122 -168 -217 -248 l-24 -20 12 23 c16 31 5 44 -34 39 -43 -6 -85 -32
-111 -68 -32 -45 -118 -142 -225 -253 l-96 -100 -17 31 c-18 35 -9 79 19 89 8
4 15 11 15 17 0 7 -4 7 -12 -1 -17 -17 -28 -15 -28 7 0 20 32 46 225 185 66
47 125 89 130 93 65 49 133 79 219 97 39 9 65 19 62 25 -3 4 4 26 14 48 13 29
33 51 67 72 60 38 64 38 29 2z m-3141 -224 l70 -81 -70 49 c-119 82 -116 79
-97 98 9 10 19 17 22 16 3 0 37 -37 75 -82z m4279 24 c-5 -3 -28 -32 -52 -64
-40 -53 -62 -65 -62 -32 0 7 9 17 20 20 17 5 23 21 19 51 -1 12 76 53 80 42 2
-6 -1 -13 -5 -17z m-4215 -130 c16 -12 20 -20 12 -25 -13 -8 -61 19 -61 34 0
16 23 11 49 -9z m-763 -36 c8 -8 22 -19 31 -24 15 -8 15 -10 1 -24 -27 -27
-82 -57 -105 -57 -31 0 -29 5 12 41 19 17 35 38 35 47 0 10 -16 -2 -42 -31
-32 -34 -47 -44 -57 -38 -12 8 -8 15 18 36 89 75 84 73 107 50z m819 -5 c-3
-5 -11 -10 -16 -10 -6 0 -7 5 -4 10 3 6 11 10 16 10 6 0 7 -4 4 -10z m-671
-91 l25 -28 -34 -46 c-19 -25 -33 -45 -30 -45 3 0 -4 -18 -15 -40 -11 -22 -24
-40 -28 -40 -6 0 -21 30 -35 71 -3 10 -22 22 -41 29 -20 6 -36 15 -36 20 0 18
133 117 151 113 10 -3 29 -18 43 -34z m-274 -20 c0 -14 -17 -10 -23 5 -4 10
-1 13 9 9 7 -3 14 -9 14 -14z m80 -89 c0 -4 -9 -6 -21 -3 -15 4 -17 8 -8 14
14 8 29 3 29 -11z m283 -4 c3 -7 1 -18 -5 -24 -6 -6 -6 -12 3 -18 7 -4 14 -3
17 4 7 21 19 13 82 -47 l62 -59 -47 -57 c-25 -32 -52 -66 -58 -76 -12 -20 -49
-23 -97 -10 l-24 7 23 16 c22 16 22 18 7 33 -9 9 -16 31 -16 48 0 21 -3 27 -9
19 -4 -7 -16 -14 -25 -16 -10 -1 -22 -9 -27 -17 -6 -10 -9 -7 -9 14 0 15 5 27
10 27 6 0 9 13 8 29 -1 18 6 38 17 50 10 12 16 24 13 27 -3 3 -21 -13 -41 -36
-24 -29 -36 -37 -40 -27 -10 26 29 71 83 100 62 31 66 32 73 13z m2848 -83 c7
-18 6 -29 -1 -35 -5 -4 -8 -6 -6 -2 2 3 0 19 -4 35 -11 36 -3 38 11 2z m-3688
-102 c-160 -117 -302 -209 -445 -289 -81 -45 -151 -82 -155 -82 -5 0 -38 -16
-75 -35 -38 -18 -68 -31 -68 -28 0 3 -6 0 -14 -6 -7 -6 -21 -8 -31 -5 -16 6
-16 8 -1 16 9 5 20 7 25 4 5 -3 14 1 21 9 7 8 16 15 21 15 29 0 339 167 339
182 0 13 -12 9 -70 -22 -98 -54 -199 -100 -275 -126 l-74 -25 -67 50 c-37 28
-64 51 -60 51 4 0 34 -20 67 -46 l59 -45 95 47 c70 34 93 50 85 59 -7 8 7 20
53 44 34 17 82 43 107 57 268 153 390 216 406 210 8 -3 17 1 20 9 3 7 12 11
19 9 7 -3 16 0 20 5 3 6 10 9 15 6 5 -3 11 -1 15 5 4 7 13 6 27 -1 18 -10 13
-16 -59 -68z m687 34 c0 -8 -4 -17 -10 -20 -16 -10 -29 3 -23 24 5 22 33 18
33 -4z m2019 -34 c-13 -11 -28 -20 -33 -21 -5 0 4 11 20 25 15 13 30 22 32 20
3 -3 -6 -13 -19 -24z m-2631 0 c3 -8 -1 -12 -9 -9 -7 2 -15 10 -17 17 -3 8 1
12 9 9 7 -2 15 -10 17 -17z m-1239 -46 l-12 -47 39 -35 39 -35 -42 32 c-24 17
-43 36 -43 41 0 19 23 100 27 96 2 -3 -1 -26 -8 -52z m1261 25 c0 -5 8 -10 18
-10 14 0 14 -2 3 -9 -18 -11 -55 5 -46 20 8 12 25 12 25 -1z m303 -89 c5 -1 6
-5 3 -10 -3 -5 1 -14 9 -21 8 -7 15 -10 15 -6 0 4 14 -1 31 -9 16 -9 29 -21
26 -28 -2 -6 -36 -22 -76 -34 -59 -19 -77 -21 -94 -11 -14 7 -17 13 -9 16 7 2
19 -2 27 -8 8 -7 15 -9 15 -6 0 12 -22 51 -33 58 -17 10 35 67 58 63 11 -2 24
-4 28 -4z m-1459 -80 c-2 -3 -12 3 -22 13 -16 17 -16 18 5 5 12 -7 20 -15 17
-18z m4204 -20 c11 -6 11 -10 -1 -20 -12 -9 -25 -8 -61 7 -26 10 -43 21 -39
25 8 9 79 -1 101 -12z m-4154 -17 c3 -8 2 -12 -4 -9 -6 3 -10 10 -10 16 0 14
7 11 14 -7z m1264 -14 c-15 -23 -31 -21 -36 3 -3 12 4 17 22 17 24 0 25 -2 14
-20z m3062 -19 c24 -10 24 -10 -5 -7 -16 3 -36 5 -42 5 -7 1 -13 5 -13 10 0
11 23 8 60 -8z m-4280 -1 c0 -5 -2 -10 -4 -10 -3 0 -8 5 -11 10 -3 6 -1 10 4
10 6 0 11 -4 11 -10z m3958 -13 c-66 -63 -147 -126 -152 -119 -9 15 140 146
155 136 5 -3 4 -10 -3 -17z m-2360 -30 c3 -38 -21 -93 -36 -83 -5 3 -14 1 -22
-5 -10 -6 -11 -9 -2 -9 6 0 12 -4 12 -10 0 -5 -23 -12 -50 -16 l-50 -7 20 -33
21 -33 -81 -112 c-73 -102 -110 -138 -110 -105 0 18 30 56 44 56 9 0 16 18 21
48 3 26 13 57 21 70 8 12 12 27 9 32 -3 6 -2 10 4 10 6 0 7 7 4 17 -4 10 -2
14 5 9 7 -4 19 12 31 40 25 55 26 60 6 44 -8 -7 -3 12 13 45 18 37 28 50 30
38 2 -10 9 -22 14 -28 7 -7 9 -1 5 18 -3 21 0 30 12 34 9 2 23 8 31 13 29 17
45 6 48 -33z m2415 -3 c-3 -7 -12 -16 -21 -19 -10 -3 -34 -21 -54 -41 -49 -46
-48 -36 2 27 22 28 40 55 40 60 0 5 9 4 19 -3 10 -6 17 -17 14 -24z m34 30
c-3 -3 -12 -4 -19 -1 -8 3 -5 6 6 6 11 1 17 -2 13 -5z m-157 -128 c0 -2 -8
-10 -17 -17 -16 -13 -17 -12 -4 4 13 16 21 21 21 13z m449 -43 c-8 -10 -18
-23 -24 -29 -5 -7 -17 -20 -25 -31 -59 -74 -126 -150 -197 -223 -67 -69 -79
-86 -63 -88 11 -2 20 -7 20 -11 0 -8 -24 -39 -53 -71 -8 -8 -42 -55 -75 -105
-34 -49 -65 -94 -69 -100 -14 -18 -91 -189 -113 -252 -12 -34 -28 -64 -36 -67
-18 -7 -18 -1 2 29 21 33 1 32 -24 0 -18 -23 -42 -34 -42 -19 0 8 61 118 99
179 17 28 37 62 43 78 7 15 16 27 20 27 4 0 8 6 8 13 -1 7 -8 3 -18 -9 -10
-11 -30 -29 -45 -38 -24 -16 -27 -16 -27 -2 0 21 32 86 42 86 4 0 8 5 8 10 0
9 95 148 110 160 3 3 13 14 21 26 50 73 208 239 370 386 76 69 91 81 68 51z
m407 -25 c-8 -13 -14 -41 -14 -63 0 -21 -5 -41 -11 -43 -15 -5 -35 -42 -22
-42 5 0 36 21 70 46 33 25 65 42 71 39 17 -11 -213 -234 -391 -380 -87 -71
-119 -96 -120 -93 -7 15 -4 86 4 96 6 8 6 12 -1 12 -8 0 -68 -44 -172 -127
-21 -16 -28 -19 -19 -8 187 231 350 414 415 465 24 20 -43 -67 -78 -102 -16
-14 -28 -31 -28 -36 0 -6 -8 -24 -17 -41 -10 -16 -14 -33 -10 -37 15 -15 62
24 118 96 31 41 73 82 95 95 34 19 39 27 40 58 1 39 17 65 49 77 32 14 36 11
21 -12z m739 -116 c-128 -123 -351 -307 -330 -272 14 25 59 85 68 91 5 3 8 9
8 13 -3 24 2 38 27 64 28 29 102 77 102 65 0 -4 -18 -28 -40 -54 -69 -82 -43
-72 43 17 68 71 187 165 207 164 3 -1 -36 -40 -85 -88z m-612 10 c-6 -4 -56
-51 -112 -104 -56 -54 -107 -98 -114 -98 -6 0 6 17 28 38 127 117 200 180 204
176 3 -3 0 -8 -6 -12z m-3533 -181 c-5 -11 -15 -23 -21 -27 -6 -3 -3 5 6 20
20 30 30 35 15 7z m3858 -11 c-7 -10 -14 -17 -17 -15 -4 4 18 35 25 35 2 0 -1
-9 -8 -20z m-623 -70 c-33 -33 -64 -60 -70 -60 -9 1 114 119 125 120 2 0 -22
-27 -55 -60z m551 -48 c-11 -18 -95 -72 -90 -57 4 8 25 26 48 40 45 27 50 29
42 17z m-684 -92 c-99 -95 -118 -95 -31 0 23 25 87 70 99 70 3 0 -28 -32 -68
-70z m518 41 c0 -11 -39 -60 -65 -84 -68 -60 -75 -31 -9 42 42 46 74 65 74 42z
m-426 -64 c-2 -7 -18 -18 -34 -24 -17 -6 -28 -7 -25 -2 4 5 -1 6 -9 3 -9 -3
-16 -10 -16 -15 0 -5 -6 -9 -13 -9 -7 0 -30 -9 -52 -21 l-40 -21 35 37 c19 20
49 44 65 52 17 9 32 19 35 22 3 3 14 11 25 17 16 9 21 8 27 -7 4 -11 5 -25 2
-32z m-3099 -23 c-21 -15 -53 -42 -94 -78 l-25 -21 24 35 c13 19 37 52 54 73
27 34 31 36 45 22 15 -15 14 -18 -4 -31z m933 -171 c-9 -19 -20 -27 -33 -25
-15 3 -17 1 -8 -10 16 -19 -1 -48 -18 -31 -15 15 -3 79 16 87 8 3 15 1 15 -5
0 -16 25 -5 26 12 2 27 6 34 11 17 2 -10 -2 -30 -9 -45z m-75 -67 c26 -8 21
-26 -30 -115 -51 -87 -62 -92 -107 -50 l-20 19 22 0 c20 0 21 3 11 21 -27 52
-22 74 27 112 34 26 50 34 62 27 10 -5 25 -11 35 -14z m1699 -18 c-17 -18 -34
-29 -38 -25 -4 4 7 21 25 38 42 40 55 28 13 -13z m-1897 -87 c-3 -6 -11 -11
-17 -11 -6 0 -6 6 2 15 14 17 26 13 15 -4z m2229 -103 c-16 -18 -32 -34 -36
-36 -3 -2 -16 -12 -29 -23 -30 -26 -46 -24 -23 4 10 12 2 7 -19 -12 -20 -19
-40 -31 -44 -27 -9 8 26 41 96 89 68 47 96 50 55 5z m-3151 -23 c-8 -22 -22
-18 -16 5 3 11 9 17 14 15 4 -3 6 -12 2 -20z m2929 -62 c-45 -65 -38 -108 9
-62 17 17 34 28 37 25 3 -3 3 -7 1 -9 -12 -9 -127 -105 -144 -120 -11 -10 -32
-28 -47 -38 l-27 -20 31 71 c24 55 46 84 92 126 32 30 61 54 63 54 3 0 -4 -12
-15 -27z m-149 0 c6 -28 -31 -86 -71 -113 -38 -24 -142 -129 -142 -142 0 -5
-8 -8 -17 -8 -15 0 -16 -2 -3 -10 12 -7 7 -16 -25 -48 -61 -60 -94 -100 -88
-105 3 -3 -9 -13 -27 -22 -30 -15 -31 -15 -21 2 5 10 26 36 45 58 20 22 36 43
36 46 0 3 9 17 21 30 42 48 100 139 105 167 3 16 15 34 26 41 11 7 17 8 14 3
-3 -5 3 -12 14 -15 11 -3 20 -1 20 3 0 12 91 130 100 130 5 0 10 -8 13 -17z
m260 -10 c-7 -3 -13 -9 -13 -14 0 -6 6 -7 13 -3 11 6 -21 -25 -90 -89 -35 -32
-27 -12 13 33 21 23 33 44 28 51 -5 8 -3 9 5 4 8 -4 19 1 28 15 8 12 18 18 22
14 3 -4 0 -9 -6 -11z m-432 -76 c-10 -9 -11 -8 -5 6 3 10 9 15 12 12 3 -3 0
-11 -7 -18z m-51 -36 c0 -5 -12 -16 -26 -26 -26 -17 -26 -10 -1 23 11 14 27
16 27 3z m140 -145 c0 -14 -219 -151 -227 -142 -3 2 0 14 7 25 11 22 66 54
112 65 15 3 40 17 55 31 25 21 53 33 53 21z m-267 -56 c-3 -10 -11 -25 -19
-31 -8 -6 -14 -18 -14 -25 0 -8 -4 -14 -10 -14 -5 0 -9 -3 -8 -7 5 -25 -34
-76 -67 -86 -20 -7 -20 -7 -1 8 18 14 18 15 2 15 -16 0 -16 2 3 26 20 25 115
133 118 134 0 0 -1 -9 -4 -20z m-68 -233 c-23 -16 -105 -44 -153 -52 -31 -5
-32 -4 -22 15 6 11 14 20 18 21 15 1 41 7 62 14 17 5 21 4 15 -6 -6 -8 -2 -8
12 2 12 8 36 16 55 17 31 2 32 2 13 -11z"/>
<path d="M4813 12047 c-29 -17 -51 -32 -49 -34 4 -5 95 47 101 58 8 12 8 12
-52 -24z"/>
<path d="M8870 11150 c0 -5 5 -10 11 -10 5 0 7 5 4 10 -3 6 -8 10 -11 10 -2 0
-4 -4 -4 -10z"/>
<path d="M13261 10560 c14 -31 19 -36 19 -24 0 6 -7 19 -16 30 -14 18 -14 18
-3 -6z"/>
<path d="M13115 9270 c-3 -5 -1 -10 4 -10 6 0 11 5 11 10 0 6 -2 10 -4 10 -3
0 -8 -4 -11 -10z"/>
<path d="M13190 8842 c0 -5 -11 -14 -25 -20 -16 -8 -25 -20 -25 -34 0 -23 -43
-96 -64 -110 -7 -5 -5 -8 5 -8 8 0 20 5 27 12 17 17 15 -4 -4 -30 -14 -21 -14
-22 11 -20 32 3 44 17 51 55 9 57 15 74 23 68 13 -7 33 58 25 78 -6 18 -24 23
-24 9z"/>
<path d="M11738 6857 c-91 -73 -114 -96 -43 -44 28 21 66 49 87 62 36 24 56
46 41 44 -4 0 -43 -28 -85 -62z"/>
<path d="M11619 6763 c-13 -16 -12 -17 4 -4 9 7 17 15 17 17 0 8 -8 3 -21 -13z"/>
<path d="M11560 6520 c-6 -11 -8 -20 -6 -20 3 0 10 9 16 20 6 11 8 20 6 20 -3
0 -10 -9 -16 -20z"/>
<path d="M10960 7743 c-24 -24 -40 -43 -35 -43 11 0 90 79 84 83 -2 2 -24 -16
-49 -40z"/>
<path d="M10020 5725 c-7 -9 -8 -15 -2 -15 5 0 12 7 16 15 3 8 4 15 2 15 -2 0
-9 -7 -16 -15z"/>
<path d="M9774 4444 c-18 -14 -18 -15 4 -4 12 6 22 13 22 15 0 8 -5 6 -26 -11z"/>
<path d="M8297 11228 c-2 -7 -1 -22 3 -33 6 -16 8 -13 7 13 0 35 -2 39 -10 20z"/>
<path d="M5391 10976 c-8 -10 -9 -16 -1 -21 13 -8 30 3 30 21 0 18 -14 18 -29
0z"/>
<path d="M2781 10471 c-10 -7 -10 -12 0 -30 18 -28 27 -27 27 4 0 29 -9 37
-27 26z"/>
<path d="M6220 4126 c0 -2 8 -10 18 -17 15 -13 16 -12 3 4 -13 16 -21 21 -21
13z"/>
</g>
</svg>
